<svg width="1680" height="900" viewBox="0 0 1680 900" fill="none" xmlns="http://www.w3.org/2000/svg">
<rect width="1680" height="900" fill="url(#paint0_linear)"/>
<g style="mix-blend-mode:multiply" opacity="0.2" filter="url(#filter0_f)">
<path d="M166.357 12.4162C183.603 -132.005 28.8257 -218.52 130.05 -206.432C231.275 -194.345 632.589 -185.296 615.343 -40.875C598.098 103.546 530.645 178.783 429.42 166.696C328.196 154.608 149.112 156.837 166.357 12.4162Z" fill="#229ADA"/>
</g>
<g style="mix-blend-mode:multiply" opacity="0.2" filter="url(#filter1_f)">
<path d="M377.357 -82.5838C394.603 -227.005 239.826 -313.52 341.05 -301.432C442.275 -289.345 843.589 -280.296 826.343 -135.875C809.098 8.54629 741.645 83.7832 640.42 71.6958C539.196 59.6084 360.112 61.8375 377.357 -82.5838Z" fill="#229ADA"/>
</g>
<g style="mix-blend-mode:multiply" opacity="0.2" filter="url(#filter2_f)">
<path d="M377.357 -82.5838C394.603 -227.005 239.826 -313.52 341.05 -301.432C442.275 -289.345 843.589 -280.296 826.343 -135.875C809.098 8.54629 741.645 83.7832 640.42 71.6958C539.196 59.6084 360.112 61.8375 377.357 -82.5838Z" fill="#229ADA"/>
</g>
<g style="mix-blend-mode:multiply" opacity="0.3" filter="url(#filter3_f)">
<path d="M1174.63 -3.92538C1247.31 -185.3 1076.63 -351.467 1203.76 -300.523C1330.88 -249.579 1848.42 -98.0425 1775.74 83.3325C1703.05 264.708 1589.33 338.828 1462.2 287.884C1335.08 236.94 1101.94 177.45 1174.63 -3.92538Z" fill="#229ADA"/>
</g>
<g style="mix-blend-mode:screen" opacity="0.3" filter="url(#filter4_f)">
<path d="M470.921 684.348C470.921 801.885 507.998 881 412.445 881C316.892 881 164 801.885 164 684.348C164 566.811 209.06 582.722 304.613 582.722C400.166 582.722 470.921 566.811 470.921 684.348Z" fill="#F1EFD6"/>
</g>
<defs>
<filter id="filter0_f" x="-127" y="-399" width="939.563" height="770.051" filterUnits="userSpaceOnUse" color-interpolation-filters="sRGB">
<feFlood flood-opacity="0" result="BackgroundImageFix"/>
<feBlend mode="normal" in="SourceGraphic" in2="BackgroundImageFix" result="shape"/>
<feGaussianBlur stdDeviation="92" result="effect1_foregroundBlur"/>
</filter>
<filter id="filter1_f" x="84" y="-494" width="939.563" height="770.051" filterUnits="userSpaceOnUse" color-interpolation-filters="sRGB">
<feFlood flood-opacity="0" result="BackgroundImageFix"/>
<feBlend mode="normal" in="SourceGraphic" in2="BackgroundImageFix" result="shape"/>
<feGaussianBlur stdDeviation="92" result="effect1_foregroundBlur"/>
</filter>
<filter id="filter2_f" x="84" y="-494" width="939.563" height="770.051" filterUnits="userSpaceOnUse" color-interpolation-filters="sRGB">
<feFlood flood-opacity="0" result="BackgroundImageFix"/>
<feBlend mode="normal" in="SourceGraphic" in2="BackgroundImageFix" result="shape"/>
<feGaussianBlur stdDeviation="92" result="effect1_foregroundBlur"/>
</filter>
<filter id="filter3_f" x="810" y="-507" width="1205.45" height="1060.58" filterUnits="userSpaceOnUse" color-interpolation-filters="sRGB">
<feFlood flood-opacity="0" result="BackgroundImageFix"/>
<feBlend mode="normal" in="SourceGraphic" in2="BackgroundImageFix" result="shape"/>
<feGaussianBlur stdDeviation="92" result="effect1_foregroundBlur"/>
</filter>
<filter id="filter4_f" x="-20" y="398" width="682" height="667" filterUnits="userSpaceOnUse" color-interpolation-filters="sRGB">
<feFlood flood-opacity="0" result="BackgroundImageFix"/>
<feBlend mode="normal" in="SourceGraphic" in2="BackgroundImageFix" result="shape"/>
<feGaussianBlur stdDeviation="92" result="effect1_foregroundBlur"/>
</filter>
<linearGradient id="paint0_linear" x1="0" y1="0" x2="1680" y2="900" gradientUnits="userSpaceOnUse">
<stop stop-color="#5ACAEF"/>
<stop offset="1" stop-color="#A5E9FF"/>
</linearGradient>
</defs>
</svg>
