<svg width="903" height="368" viewBox="0 0 903 368" fill="none" xmlns="http://www.w3.org/2000/svg">
<path d="M859 34H702C702 34 712.678 12.269 740.096 16.4944C740.096 16.4944 766.55 -6.64511 793.141 12.7384C793.141 12.7384 827.862 6.23255 827.862 26.488C827.931 26.5551 859 18.3054 859 34Z" fill="white"/>
<path d="M231 63H385C385 63 384.04 35.2151 350.443 47.1426C350.443 47.1426 325.759 24.3217 302.035 47.1426C302.035 47.1426 277.351 35.2151 262.541 54.1061C262.609 54.1061 234.977 49.142 231 63Z" fill="white"/>
<path d="M0.0105979 16H57C57 16 50.5302 1.24004 34.6998 6.46172C34.6998 6.46172 24.3068 -6.83617 15.6345 4.72116C15.6345 4.72116 -0.471197 3.95532 0.0105979 16Z" fill="white"/>
<path d="M520 185H573C573 185 566.12 170.3 554.879 176.958C554.879 176.958 545.069 167.466 535.737 177.881C535.737 177.881 522.452 174.124 520 185Z" fill="white"/>
<path d="M9 173H62C62 173 55.1195 158.3 43.8792 164.958C43.8792 164.958 34.0694 155.466 24.7365 165.881C24.7365 165.881 11.4524 162.124 9 173Z" fill="white"/>
</svg>
