<svg width="149" height="142" viewBox="0 0 149 142" fill="none" xmlns="http://www.w3.org/2000/svg">
<path d="M83.1216 114.361C101.516 108.293 124.526 113.622 139.131 90.4241C164.775 49.6934 127.611 -12.3398 65.2223 3.98562C-6.35446 22.7154 -17.4259 139.221 33.081 141.183C57.3968 142.127 59.8475 122.038 83.1216 114.361Z" fill="#F8F6E9"/>
<path d="M70.7724 34.4657H74.7757V30.4624C74.7757 25.1505 70.4696 20.8443 65.1576 20.8443H62.0159C61.5401 20.8443 61.1543 21.2301 61.1543 21.7059V24.8476C61.1543 30.1596 65.4605 34.4657 70.7724 34.4657Z" fill="#A3E2A5"/>
<path d="M74.776 36.1302C74.3501 36.1302 73.9241 35.9675 73.5992 35.6427L67.8677 29.9112C67.2176 29.2611 67.2176 28.2073 67.8677 27.5572C68.5176 26.9075 69.5713 26.9075 70.2212 27.5572L75.9528 33.2887C76.6029 33.9388 76.6029 34.9924 75.9528 35.6427C75.6279 35.9675 75.2019 36.1302 74.776 36.1302Z" fill="#78C2A4"/>
<path d="M78.7795 29.6215H74.7761V25.6181C74.7761 20.3062 79.0823 16 84.3942 16H87.5359C88.0118 16 88.3976 16.3858 88.3976 16.8616V20.0033C88.3976 25.3153 84.0914 29.6215 78.7795 29.6215Z" fill="#A3E2A5"/>
<path d="M74.7769 31.2859C74.3168 31.2859 73.8592 31.0963 73.5301 30.7247C72.9207 30.0367 72.9847 28.9849 73.6729 28.3755L79.3844 23.3184C80.0726 22.709 81.1243 22.7734 81.7336 23.4612C82.343 24.1492 82.279 25.2011 81.5908 25.8104L75.8793 30.8675C75.5629 31.148 75.1689 31.2859 74.7769 31.2859Z" fill="#78C2A4"/>
<path d="M74.776 48.6367C73.8569 48.6367 73.1118 47.8916 73.1118 46.9725V29.5666C73.1118 28.6472 73.8569 27.9023 74.776 27.9023C75.6952 27.9023 76.4403 28.6474 76.4403 29.5666V46.9725C76.4403 47.8916 75.6952 48.6367 74.776 48.6367Z" fill="#78C2A4"/>
<path d="M117.215 99.0444L105.355 101.615L103.562 93.3413L115.422 90.7709C117.707 90.2757 119.96 91.7264 120.456 94.0113C120.951 96.2956 119.5 98.5492 117.215 99.0444Z" fill="#EBA086"/>
<path d="M32.3372 99.0443L44.198 101.615L45.991 93.3412L34.1303 90.7708C31.8457 90.2756 29.5921 91.7263 29.0969 94.0111C28.6019 96.2955 30.0524 98.5491 32.3372 99.0443Z" fill="#EBA086"/>
<path d="M115.621 81.3882C115.621 103.947 97.3339 122.234 74.7755 122.234C52.217 122.234 37.1607 103.947 37.1607 81.3882C37.1607 72.3685 36.8533 64.0316 41.8045 57.2734C47.6189 49.337 56.2298 43.5781 66.1859 41.4471C67.5707 41.1507 68.9814 44.1556 70.4143 44.0035C71.8472 43.8514 73.3023 40.5424 74.7755 40.5424C88.4872 40.5424 97.3899 47.2988 104.798 57.6639C108.301 62.5655 113.979 68.274 115.036 74.4568C115.421 76.7098 115.621 79.0256 115.621 81.3882Z" fill="url(#paint0_linear)"/>
<path d="M115.024 74.4588C111.732 55.2025 94.9708 40.5424 74.7755 40.5424C71.8288 40.5424 68.9574 40.8616 66.1875 41.4544C67.0024 44.735 67.8339 48.5882 68.5824 53.1344C69.8065 60.5691 70.3196 66.8734 73.8624 68.0142C77.3128 69.1255 80.1172 64.2054 84.9025 65.1343C88.9174 65.9136 89.4801 69.8695 93.0625 72.8141C97.9216 76.8089 107.063 77.8945 115.024 74.4588Z" fill="url(#paint1_linear)"/>
<mask id="mask0" mask-type="alpha" maskUnits="userSpaceOnUse" x="66" y="40" width="50" height="37">
<path d="M115.024 74.4588C111.731 55.2025 94.9703 40.5424 74.7751 40.5424C71.8283 40.5424 68.9569 40.8616 66.187 41.4544C67.0019 44.735 67.8334 48.5882 68.5819 53.1344C69.8061 60.5691 70.3192 66.8734 73.8619 68.0142C77.3123 69.1255 80.1167 64.2054 84.902 65.1343C88.9169 65.9136 89.4796 69.8695 93.062 72.8141C97.9211 76.8089 107.063 77.8945 115.024 74.4588Z" fill="url(#paint2_linear)"/>
</mask>
<g mask="url(#mask0)">
<rect opacity="0.6" x="148.019" y="93.8221" width="30.857" height="70.0536" transform="rotate(145.629 148.019 93.8221)"/>
<rect opacity="0.6" x="122.489" y="40.6836" width="30.857" height="70.0536" transform="rotate(111.508 122.489 40.6836)"/>
</g>
<path d="M50.8904 67.8268C49.6094 63.6928 46.0957 59.8454 41.811 57.278C36.8597 64.0361 33.9299 72.3685 33.9299 81.3882C33.9299 92.2585 38.1844 102.129 45.1089 109.448C50.2328 106.042 53.905 100.558 54.2525 95.6404C54.4836 92.3696 53.0535 92.0599 51.8074 85.5542C49.9413 75.813 52.4465 72.8486 50.8904 67.8268Z" fill="url(#paint3_linear)"/>
<mask id="mask1" mask-type="alpha" maskUnits="userSpaceOnUse" x="33" y="57" width="22" height="53">
<path d="M50.8904 67.8268C49.6094 63.6928 46.0957 59.8454 41.811 57.278C36.8597 64.0361 33.9299 72.3685 33.9299 81.3882C33.9299 92.2585 38.1844 102.129 45.1089 109.448C50.2328 106.042 53.905 100.558 54.2525 95.6404C54.4836 92.3696 53.0535 92.0599 51.8074 85.5542C49.9413 75.813 52.4465 72.8486 50.8904 67.8268Z" fill="url(#paint4_linear)"/>
</mask>
<g mask="url(#mask1)">
<rect opacity="0.6" x="50.0977" y="116.043" width="30.857" height="70.0536" transform="rotate(178.981 50.0977 116.043)"/>
</g>
<path d="M60.9204 119.82C65.2471 121.38 69.911 122.234 74.7756 122.234C86.8416 122.234 97.6819 116.999 105.159 108.68C102.429 104.632 98.3109 100.872 95.9824 98.747C92.7547 95.8021 85.0606 88.782 80.3156 91.0561C76.6057 92.834 78.4181 98.5115 75.1883 105.868C71.8269 113.525 65.4961 117.329 60.9204 119.82Z" fill="url(#paint5_linear)"/>
<path d="M105.159 108.681C105.159 108.68 105.159 108.68 105.159 108.681C103.788 106.647 102.151 104.781 100.448 103.022C92.1638 113.983 77.6043 120.474 63.0893 118.597C62.3763 119.017 61.6455 119.425 60.9204 119.819C65.2471 121.38 69.911 122.234 74.7756 122.234C86.8416 122.234 97.6819 116.999 105.159 108.681Z" fill="#95D6A4"/>
<path fill-rule="evenodd" clip-rule="evenodd" d="M107.252 96.5927C105.736 95.0762 103.277 95.0762 101.76 96.5927C100.252 98.101 100.244 100.541 101.736 102.06L99.4069 99.7309C97.8902 98.2145 95.4313 98.2145 93.9149 99.7309C92.4081 101.238 92.3982 103.674 93.8854 105.193C92.3664 103.707 89.9299 103.716 88.4235 105.223C86.907 106.739 86.907 109.198 88.4235 110.715L99.7211 122.013C101.238 123.529 103.697 123.529 105.213 122.013C106.72 120.506 106.73 118.069 105.242 116.55C106.761 118.037 109.198 118.027 110.705 116.521C112.221 115.004 112.221 112.545 110.705 111.029L108.376 108.7C109.894 110.191 112.335 110.183 113.843 108.675C115.359 107.158 115.359 104.699 113.843 103.183L107.252 96.5927ZM90.7768 113.068C89.2601 111.552 86.8013 111.552 85.2848 113.068C83.7683 114.585 83.7683 117.044 85.2848 118.56L91.8752 125.151C93.3918 126.667 95.8507 126.667 97.3672 125.151C98.8836 123.634 98.8836 121.175 97.3672 119.659L90.7768 113.068Z" fill="#EBA086"/>
<mask id="mask2" mask-type="alpha" maskUnits="userSpaceOnUse" x="84" y="95" width="31" height="32">
<path fill-rule="evenodd" clip-rule="evenodd" d="M107.252 96.5927C105.736 95.0762 103.277 95.0762 101.76 96.5927C100.252 98.101 100.244 100.541 101.736 102.06L99.4069 99.7309C97.8902 98.2145 95.4313 98.2145 93.9149 99.7309C92.4081 101.238 92.3982 103.674 93.8854 105.193C92.3664 103.707 89.9299 103.716 88.4235 105.223C86.907 106.739 86.907 109.198 88.4235 110.715L99.7211 122.013C101.238 123.529 103.697 123.529 105.213 122.013C106.72 120.506 106.73 118.069 105.242 116.55C106.761 118.037 109.198 118.027 110.705 116.521C112.221 115.004 112.221 112.545 110.705 111.029L108.376 108.7C109.894 110.191 112.335 110.183 113.843 108.675C115.359 107.158 115.359 104.699 113.843 103.183L107.252 96.5927ZM90.7768 113.068C89.2601 111.552 86.8013 111.552 85.2848 113.068C83.7683 114.585 83.7683 117.044 85.2848 118.56L91.8752 125.151C93.3918 126.667 95.8507 126.667 97.3672 125.151C98.8836 123.634 98.8836 121.175 97.3672 119.659L90.7768 113.068Z" fill="#E2DB98"/>
</mask>
<g mask="url(#mask2)">
<g style="mix-blend-mode:multiply" opacity="0.5">
<rect x="116.491" y="84" width="34" height="77" transform="rotate(48.2994 116.491 84)"/>
</g>
</g>
<path fill-rule="evenodd" clip-rule="evenodd" d="M42.2992 96.5927C43.8158 95.0762 46.2745 95.0762 47.7912 96.5927C49.3076 98.1093 49.3076 100.568 47.7912 102.085L41.2008 108.675C39.6841 110.192 37.2253 110.192 35.7088 108.675C34.1921 107.158 34.1921 104.699 35.7088 103.183L42.2992 96.5927ZM50.1451 99.7309C51.6618 98.2145 54.1207 98.2145 55.6371 99.7309C57.1538 101.248 57.1538 103.706 55.6371 105.223L55.6371 105.223C57.1538 103.706 59.6125 103.706 61.1291 105.223C62.6456 106.739 62.6456 109.198 61.1291 110.715L58.8291 113.015C60.3496 111.552 62.7682 111.57 64.2666 113.068C65.7831 114.585 65.7831 117.044 64.2666 118.56L57.6762 125.151C56.1595 126.667 53.7007 126.667 52.1842 125.151C50.6858 123.652 50.668 121.234 52.1306 119.713L49.8315 122.013C48.3148 123.529 45.856 123.529 44.3395 122.013C42.823 120.496 42.823 118.037 44.3395 116.521L44.3395 116.521C42.8228 118.037 40.3639 118.037 38.8475 116.521C37.3308 115.004 37.3308 112.545 38.8475 111.029L50.1451 99.7309Z" fill="#EBA086"/>
<mask id="mask3" mask-type="alpha" maskUnits="userSpaceOnUse" x="34" y="95" width="32" height="32">
<path fill-rule="evenodd" clip-rule="evenodd" d="M42.2992 96.5927C43.8158 95.0762 46.2745 95.0762 47.7912 96.5927C49.3076 98.1093 49.3076 100.568 47.7912 102.085L41.2008 108.675C39.6841 110.192 37.2253 110.192 35.7088 108.675C34.1921 107.158 34.1921 104.699 35.7088 103.183L42.2992 96.5927ZM50.1451 99.7309C51.6618 98.2145 54.1207 98.2145 55.6371 99.7309C57.1538 101.248 57.1538 103.706 55.6371 105.223L55.6371 105.223C57.1538 103.706 59.6125 103.706 61.1291 105.223C62.6456 106.739 62.6456 109.198 61.1291 110.715L58.8291 113.015C60.3496 111.552 62.7682 111.57 64.2666 113.068C65.7831 114.585 65.7831 117.044 64.2666 118.56L57.6762 125.151C56.1595 126.667 53.7007 126.667 52.1842 125.151C50.6858 123.652 50.668 121.234 52.1306 119.713L49.8315 122.013C48.3148 123.529 45.856 123.529 44.3395 122.013C42.823 120.496 42.823 118.037 44.3395 116.521L44.3395 116.521C42.8228 118.037 40.3639 118.037 38.8475 116.521C37.3308 115.004 37.3308 112.545 38.8475 111.029L50.1451 99.7309Z" fill="#E2DB98"/>
</mask>
<g mask="url(#mask3)">
<g style="mix-blend-mode:multiply" opacity="0.5">
<rect x="75.6899" y="123.867" width="34" height="77" transform="rotate(130.363 75.6899 123.867)"/>
</g>
</g>
<defs>
<linearGradient id="paint0_linear" x1="54.9998" y1="46" x2="76.3891" y2="122.234" gradientUnits="userSpaceOnUse">
<stop stop-color="#5DCBEE"/>
<stop offset="1" stop-color="#96E4FF"/>
</linearGradient>
<linearGradient id="paint1_linear" x1="90.6058" y1="40.5424" x2="90.6058" y2="76.5157" gradientUnits="userSpaceOnUse">
<stop stop-color="#91DD9A"/>
<stop offset="1" stop-color="#D1ECBF"/>
</linearGradient>
<linearGradient id="paint2_linear" x1="90.6053" y1="40.5424" x2="90.6053" y2="76.5157" gradientUnits="userSpaceOnUse">
<stop stop-color="#91DD9A"/>
<stop offset="1" stop-color="#D1ECBF"/>
</linearGradient>
<linearGradient id="paint3_linear" x1="44.1036" y1="57.278" x2="44.1036" y2="109.448" gradientUnits="userSpaceOnUse">
<stop stop-color="#91DD9A"/>
<stop offset="1" stop-color="#D1ECBF"/>
</linearGradient>
<linearGradient id="paint4_linear" x1="44.1036" y1="57.278" x2="44.1036" y2="109.448" gradientUnits="userSpaceOnUse">
<stop stop-color="#91DD9A"/>
<stop offset="1" stop-color="#D1ECBF"/>
</linearGradient>
<linearGradient id="paint5_linear" x1="83.0398" y1="90.6104" x2="83.0398" y2="122.234" gradientUnits="userSpaceOnUse">
<stop stop-color="#D1ECBF"/>
<stop offset="1" stop-color="#91DD9A"/>
</linearGradient>
</defs>
</svg>
